<svg xmlns="http://www.w3.org/2000/svg" fill="currentColor" viewBox="0 0 24 28" class="change-lang-btn-icon svg replaced-svg">
  <path  d="M23.903 6.916l.067-.044c-.134-.243-.334-.464-.534-.574L12.696.155C12.518.045 12.274 0 12.007 0c-.267 0-.511.066-.69.155L.646 6.32C.267 6.54 0 7.093 0 7.513v12.308c0 .243.044.508.2.752l-.044.022c.11.176.266.331.422.42l10.718 6.165c.178.11.422.154.689.154.267 0 .511-.066.69-.154l10.672-6.165c.378-.221.645-.774.645-1.194V7.491c.022-.177 0-.376-.089-.575zM12.007 19.07a5.455 5.455 0 004.736-2.74l2.869 1.68a8.794 8.794 0 01-7.605 4.374c-4.847 0-8.783-3.91-8.783-8.728 0-4.817 3.936-8.728 8.783-8.728a8.796 8.796 0 017.627 4.42l-2.89 1.656a5.43 5.43 0 00-4.737-2.762c-3.002 0-5.448 2.431-5.448 5.414 0 2.983 2.446 5.414 5.448 5.414z"></path>
</svg>