<svg xmlns="http://www.w3.org/2000/svg" fill="currentColor" viewBox="0 0 24 27" class="change-lang-btn-icon svg replaced-svg">
  <path fill="currentColor"  d="M23.903 6.639l.067-.043c-.134-.233-.334-.445-.534-.551L12.696.148C12.518.042 12.274 0 12.007 0a1.64 1.64 0 00-.69.148L.646 6.066C.267 6.278 0 6.808 0 7.21v11.814c0 .233.044.488.2.72l-.044.022c.11.17.266.318.422.403l10.718 5.918c.178.106.422.148.689.148.267 0 .511-.064.69-.148l10.672-5.918c.378-.212.645-.742.645-1.145V7.19c.022-.17 0-.36-.089-.551zm-7.893 6.893v-.849h1.111v-1.06h1.112v1.06h1.112v.849h-1.112v1.06h-1.112v-1.06H16.01zm.733-2.97c-.934-1.59-2.712-2.65-4.736-2.65-3.002 0-5.448 2.332-5.448 5.195 0 2.864 2.446 5.197 5.448 5.197 2.024 0 3.802-1.06 4.736-2.63l2.869 1.612c-1.512 2.502-4.358 4.2-7.605 4.2-4.847 0-8.783-3.755-8.783-8.379 0-4.623 3.936-8.377 8.783-8.377 3.269 0 6.115 1.718 7.627 4.242l-2.89 1.59zm6.604 2.97h-1.112v1.06h-.889v-1.06h-1.334v-.849h1.334v-1.06h.89v1.06h1.111v.849z"></path>
</svg>