<svg xmlns="http://www.w3.org/2000/svg" viewBox="0 0 40 40" fill="currentColor" class="change-lang-btn-icon svg replaced-svg">
<g clip-path="url(#clip0_2886_601)">
<path d="M3.00684 16.739C2.9516 16.739 2.89634 16.6837 2.9516 16.6285L3.33841 16.0759C3.39365 16.0206 3.44891 15.9654 3.55944 15.9654H10.522C10.5772 15.9654 10.6325 16.0206 10.5772 16.0759L10.2457 16.5731C10.1905 16.6285 10.1352 16.6837 10.0247 16.6837L3.00684 16.739ZM0.0781503 18.5072C0.0228897 18.5072 -0.0323709 18.4519 0.0228897 18.3967L0.409701 17.8441C0.464961 17.7888 0.520209 17.7336 0.63073 17.7336H9.52736C9.58262 17.7336 9.63788 17.7888 9.63788 17.8441L9.47211 18.3967C9.47211 18.4519 9.36159 18.5072 9.30633 18.5072H0.0781503ZM4.77513 20.3307C4.71987 20.3307 4.66461 20.2755 4.71987 20.2202L4.99616 19.7229C5.05142 19.6676 5.10668 19.6124 5.21719 19.6124H9.0853C9.14055 19.6124 9.19581 19.6676 9.19581 19.7229L9.14055 20.165C9.14055 20.2202 9.0853 20.2755 9.03004 20.2755L4.77513 20.3307ZM24.9997 16.3521L21.7394 17.181C21.4632 17.2362 21.408 17.2916 21.187 16.96C20.9106 16.6285 20.6896 16.4074 20.2475 16.2416C19.0318 15.6338 17.8161 15.7995 16.711 16.5179C15.3848 17.3468 14.7217 18.6178 14.7217 20.2202C14.7217 21.7674 15.8268 23.0384 17.3741 23.2595C18.7003 23.4252 19.8054 22.9831 20.6896 21.9886C20.8554 21.7674 21.0211 21.5464 21.2422 21.2702H17.4846C17.0977 21.2702 16.9872 20.9938 17.0977 20.6624C17.3741 20.0545 17.8161 19.0598 18.0925 18.5624C18.1477 18.4519 18.3134 18.2309 18.5898 18.2309H25.6628C25.6076 18.7835 25.6076 19.2809 25.5523 19.8334C25.3313 21.215 24.834 22.5412 23.9499 23.6462C22.5684 25.4698 20.7449 26.6303 18.4239 26.9617C16.4899 27.2381 14.7217 26.8512 13.1744 25.6908C11.7377 24.5857 10.9088 23.149 10.6879 21.3807C10.4115 19.2809 11.0746 17.3468 12.3455 15.689C13.727 13.8655 15.5505 12.7051 17.8161 12.3183C19.6396 11.9867 21.408 12.2078 22.9552 13.2576C24.0051 13.9207 24.7235 14.8602 25.2208 16.0206C25.2761 16.2416 25.2208 16.2969 24.9997 16.3521Z" fill="currentColor"></path>
<path d="M31.4177 27.1297C29.6494 27.0745 28.0469 26.5771 26.6653 25.4168C25.505 24.4221 24.7867 23.1511 24.5655 21.6592C24.2341 19.4489 24.8419 17.5148 26.1681 15.8018C27.6048 13.9229 29.3179 12.9836 31.6387 12.5415C33.628 12.2099 35.5068 12.3758 37.1646 13.5361C38.7118 14.586 39.6511 16.0227 39.9275 17.9015C40.259 20.554 39.4854 22.6537 37.7171 24.4773C36.4461 25.8035 34.8437 26.5771 33.0754 26.964C32.4675 27.0745 31.9149 27.0745 31.4177 27.1297ZM36.0594 19.283C36.0594 19.0068 36.0594 18.841 36.0041 18.6199C35.6725 16.6858 33.9043 15.5808 32.0255 16.0227C30.202 16.4096 29.0415 17.5701 28.5994 19.3935C28.2679 20.8856 28.9863 22.4328 30.3677 23.0959C31.4177 23.538 32.5228 23.4827 33.5175 22.9854C35.1199 22.2118 35.9489 20.9408 36.0594 19.283Z" fill="currentColor"></path>
</g>
<defs>
<clipPath id="clip0_2886_601">
<rect width="40" height="40" fill="white"></rect>
</clipPath>
</defs>
</svg>