<svg xmlns="http://www.w3.org/2000/svg" fill="currentColor" viewBox="0 0 21 28" class="change-lang-btn-icon svg replaced-svg">
  <path fill-rule="evenodd" d="M13.266 1s2.718 2.703-2.578 6.857c-3.285 2.578-2.069 4.3-.902 5.951.343.485.68.963.9 1.456-2.48-2.223-4.298-4.18-3.078-6.002.596-.89 1.543-1.626 2.501-2.372 1.922-1.495 3.889-3.026 3.157-5.89zm-1.403 12.431c1.263 1.445-.331 2.744-.331 2.744s3.204-1.644 1.733-3.703a46.915 46.915 0 00-.175-.242c-1.278-1.764-2.008-2.772 3.452-5.92 0 0-8.956 2.223-4.679 7.122zm-4.65 7.678s-.998.577.713.772c2.073.236 3.133.202 5.417-.227 0 0 .601.374 1.44.698-5.122 2.18-11.592-.127-7.57-1.244zm-.625-2.847s-1.121.825.591 1.001c2.215.227 3.964.246 6.99-.333 0 0 .419.422 1.076.652-6.191 1.8-13.088.142-8.657-1.32zm11.235 6.028c1.554-.468.815-1.075.815-1.075 2.708 1.215-5.885 3.655-16.326 1.972-3.83-.617 1.842-2.77 2.88-2.044 0 0-.328-.022-.902.101-.55.118-2.3.678-1.368 1.082 2.597 1.122 11.945.854 14.9-.036zM6.01 16.845c-3.07-.409 1.684-1.531 1.684-1.531s-1.847-.124-4.117.967c-2.686 1.29 6.641 1.879 11.47.616.503-.34 1.196-.636 1.196-.636s-1.975.351-3.943.516c-2.409.2-4.993.24-6.29.067zM17.28 15.41c1.584-.328 3.854 2.108-1.055 4.642-.02.055-.084.115-.096.127l-.002.001c6.555-1.712 4.145-6.036 1.011-4.941a.89.89 0 00-.419.321s.174-.07.561-.15zm3.017 9.127c-.172 2.216-7.408 2.681-12.118 2.382-3.096-.198-3.699-.694-3.699-.694 2.941.483 7.902.57 11.923-.182 3.564-.666 3.893-1.506 3.893-1.506z" clip-rule="evenodd"></path>
  <path d="M10.688 7.857l-.186-.236.186.236zM13.266 1l.212-.213a.3.3 0 00-.502.287l.29-.074zm-3.48 12.808l-.245.174.245-.174zm.9 1.456l-.2.223a.3.3 0 00.474-.345l-.274.122zM7.608 9.262l-.25-.167.25.167zm2.501-2.372l.184.237-.184-.237zm1.423 9.285l-.19-.233a.3.3 0 00.327.5l-.137-.267zm.331-2.744l-.226.198.226-.197zm1.402-.96l.244-.174-.244.175zm-.175-.241l-.243.176.243-.176zm3.452-5.92l.15.26a.3.3 0 00-.222-.55l.072.29zM7.926 21.882l-.034.298.034-.298zm-.712-.773l.15.26a.3.3 0 00-.23-.549l.08.29zm6.129.546l.158-.255a.3.3 0 00-.214-.04l.056.295zm1.44.698l.118.276a.3.3 0 00-.01-.556l-.108.28zM7.18 19.263l-.03.298.03-.298zm-.591-1l.177.24a.3.3 0 00-.271-.526l.094.285zm7.582.667l.213-.211a.3.3 0 00-.27-.084l.057.295zm1.075.652l.084.288a.3.3 0 00.016-.571l-.1.283zm3.393 3.633l.122-.273a.3.3 0 00-.312.505l.19-.232zm-.815 1.075l.086.287-.086-.287zm-15.511.897l-.048.297.048-.297zm2.88-2.044l-.02.3a.3.3 0 00.192-.546l-.172.246zm-.902.101l.063.293-.063-.293zm-1.368 1.082l-.119.275.12-.275zm4.773-9.012l.069.292a.3.3 0 00-.049-.591l-.02.299zm-1.684 1.53l.04-.297-.04.297zm-2.433-.563l.13.27-.13-.27zm11.47.616l.077.29a.301.301 0 00.092-.042l-.168-.248zm1.196-.636l.118.276a.3.3 0 00-.17-.571l.052.295zm-3.943.516l.025.299-.025-.3zm3.923 3.275l-.137-.267a.3.3 0 00-.143.16l.28.107zm1.055-4.642l.061.294-.06-.294zm-1.15 4.769l-.208-.218-.005.005.212.213zm0 0l.208.215.003-.003-.212-.212zm-.003.001l-.209-.215a.3.3 0 00.285.506l-.076-.29zm1.011-4.941l-.099-.284.1.284zm-.419.321l-.252-.162a.3.3 0 00.364.44l-.112-.278zm-8.54 11.36l-.02.298.02-.299zm12.117-2.383l.3.023a.3.3 0 00-.579-.132l.28.11zM4.48 26.225l.049-.296a.3.3 0 00-.349.296h.3zm11.923-.182l-.055-.295.055.295zm-5.53-17.95c2.69-2.11 3.41-3.904 3.391-5.227-.01-.655-.2-1.17-.391-1.521a2.916 2.916 0 00-.353-.514 1.677 1.677 0 00-.036-.039L13.48.79h-.001V.787L13.265 1c-.211.213-.211.213-.212.212l.002.003.016.016c.014.017.037.042.064.078.055.07.131.178.208.32.154.286.311.706.32 1.246.015 1.067-.555 2.702-3.162 4.746l.37.473zm-.84 5.542c-.597-.844-1.13-1.613-1.165-2.467-.033-.82.397-1.812 2.006-3.075l-.37-.472c-1.677 1.316-2.28 2.473-2.235 3.571.043 1.064.703 1.982 1.273 2.79l.49-.347zm.928 1.507c-.233-.525-.59-1.028-.929-1.507l-.49.347c.347.49.666.944.871 1.404l.548-.244zM7.358 9.095c-.34.51-.475 1.04-.432 1.585.043.537.257 1.068.578 1.59.638 1.037 1.745 2.108 2.982 3.217l.4-.446c-1.242-1.114-2.285-2.133-2.871-3.086-.291-.473-.458-.912-.49-1.323-.033-.404.063-.801.332-1.203l-.499-.334zm2.567-2.442c-.948.738-1.938 1.505-2.567 2.442l.499.334c.564-.841 1.468-1.549 2.436-2.302l-.368-.474zm3.05-5.579c.343 1.342.056 2.352-.54 3.214-.609.882-1.54 1.61-2.51 2.365l.368.474c.953-.741 1.965-1.526 2.637-2.498.685-.993 1.016-2.18.627-3.703l-.582.148zm-1.443 15.1l.19.233.002-.002.006-.004a12.436 12.436 0 00.073-.066 2.969 2.969 0 00.639-.861c.137-.287.235-.64.201-1.03-.034-.395-.2-.806-.554-1.21l-.452.395c.279.318.386.612.408.866a1.39 1.39 0 01-.145.72 2.287 2.287 0 01-.556.726l-.002.002.19.232zm1.49-3.528c.32.45.375.854.3 1.211-.079.37-.303.722-.592 1.035a5.084 5.084 0 01-.888.745 5.698 5.698 0 01-.417.255l-.024.013-.005.002h-.001l.137.268.137.267.001-.001.003-.001a5.685 5.685 0 001.498-1.14c.328-.356.629-.802.738-1.319.111-.53.014-1.104-.4-1.684l-.488.35zm-.175-.24l.174.24.488-.349-.176-.243-.486.352zm3.545-6.355c-1.371.79-2.366 1.453-3.064 2.034-.696.577-1.12 1.093-1.318 1.595-.204.519-.15.99.036 1.439.179.43.488.854.801 1.287l.486-.352c-.325-.45-.587-.813-.733-1.166-.14-.335-.168-.642-.031-.99.143-.363.479-.8 1.142-1.352.66-.549 1.622-1.192 2.98-1.975l-.299-.52zm-4.303 7.183c-1.026-1.175-1.214-2.133-1.01-2.905.212-.794.86-1.479 1.69-2.047.823-.564 1.783-.985 2.544-1.266a15.575 15.575 0 011.296-.413h.004l.001-.001-.072-.291-.073-.291h-.002l-.005.002a3.097 3.097 0 00-.098.025 16.165 16.165 0 00-1.258.406c-.784.29-1.796.73-2.677 1.334-.875.6-1.664 1.388-1.93 2.388-.27 1.023.026 2.18 1.138 3.454l.452-.395zm-4.13 8.35c-.417-.048-.627-.116-.72-.168-.045-.024-.041-.034-.03-.015a.124.124 0 01.013.083c-.005.02-.003-.003.057-.054a.704.704 0 01.082-.06l.004-.002-.151-.26-.15-.26v.001h-.001l-.002.001-.004.003a1.94 1.94 0 00-.05.032c-.031.02-.073.05-.117.089-.074.063-.215.197-.255.385a.477.477 0 00.054.342.658.658 0 00.258.24c.2.11.507.189.945.238l.068-.596zm5.328-.225c-2.256.424-3.285.456-5.327.224l-.068.596c2.105.24 3.194.204 5.506-.23l-.11-.59zm1.604.713a9.737 9.737 0 01-1.367-.659c-.008-.005-.014-.009-.018-.01l-.004-.003-.001-.001-.158.255-.159.255h.001l.002.001.006.004.023.014.084.05a10.362 10.362 0 001.375.654l.216-.56zm-7.757-1.253c-.517.144-.905.316-1.152.523a.919.919 0 00-.284.379.665.665 0 00-.001.46c.098.276.358.488.648.649.302.168.696.313 1.15.428 1.81.457 4.777.49 7.406-.63l-.235-.552c-2.494 1.061-5.324 1.03-7.023.6a4.304 4.304 0 01-1.007-.37c-.256-.143-.352-.263-.374-.326a.066.066 0 01-.001-.051.335.335 0 01.106-.127c.149-.125.438-.269.927-.404l-.16-.579zm.076-1.854c-.415-.043-.597-.121-.665-.172-.028-.021-.024-.027-.02-.014.004.012 0 .015.004.001a.509.509 0 01.125-.176 1.176 1.176 0 01.106-.096l.005-.004h.001l-.178-.242-.178-.241h-.001l-.002.001-.004.003-.012.01a1.51 1.51 0 00-.166.15c-.088.088-.218.24-.272.428-.029.1-.04.22 0 .346a.63.63 0 00.231.313c.203.153.523.244.965.29l.061-.597zm6.904-.33c-2.996.573-4.715.554-6.904.33l-.061.596c2.24.23 4.018.248 7.077-.337l-.113-.589zm1.23.664a2.835 2.835 0 01-.96-.579l-.002-.002h.001l-.213.212a46.433 46.433 0 00-.213.211v.001l.003.002.005.005.018.018.065.058a3.438 3.438 0 001.098.64l.199-.566zm-8.85-1.322c-.566.187-.984.386-1.25.603-.265.216-.45.517-.325.86.104.287.394.487.703.629.327.15.756.275 1.255.37 1.993.382 5.313.343 8.452-.569l-.167-.576c-3.052.887-6.276.92-8.172.556-.473-.09-.85-.203-1.117-.326-.284-.131-.374-.243-.39-.288-.003-.009-.005-.016.003-.036a.457.457 0 01.137-.155c.18-.147.516-.319 1.059-.498l-.188-.57zm12.144 5.238l-.19.232h-.001l-.002-.001v-.001c-.001 0-.001 0 0 0l.008.008c.008.008.02.021.03.037.025.035.031.06.03.074 0 .001.002.047-.098.129-.106.087-.309.198-.679.31l.173.574c.408-.123.695-.263.888-.42.198-.164.307-.358.316-.567a.722.722 0 00-.139-.445.907.907 0 00-.127-.145l-.012-.01-.004-.004-.002-.002-.191.231zM2.264 25.484c5.253.846 10.045.657 13.194.1 1.564-.278 2.76-.652 3.4-1.058.163-.104.305-.218.407-.345a.724.724 0 00.177-.47c-.008-.372-.334-.613-.681-.77l-.246.548c.15.068.24.13.287.178.023.023.033.04.037.048l.003.008v.005a.26.26 0 01-.044.076c-.047.059-.13.132-.261.215-.535.34-1.632.699-3.183.973-3.081.546-7.806.735-12.995-.1l-.095.592zm3.1-2.587c-.202-.14-.475-.19-.74-.2a4.4 4.4 0 00-.91.077 7.598 7.598 0 00-1.92.618c-.28.137-.534.293-.725.46-.18.158-.36.376-.369.643-.01.302.193.518.447.66.255.141.626.25 1.117.329l.095-.593c-.466-.075-.756-.17-.92-.26a.411.411 0 01-.13-.102l-.009-.013c0-.01.017-.083.164-.213.136-.12.34-.247.595-.372a7.003 7.003 0 011.759-.566c.295-.053.565-.076.784-.068.229.009.36.051.418.092l.344-.492zm-1.01.64c.271-.058.482-.081.621-.09a2.307 2.307 0 01.197-.005l.02-.299.02-.3h-.024a2.871 2.871 0 00-.25.005 4.88 4.88 0 00-.711.103l.126.586zm-1.313.513c-.097-.042-.115-.069-.11-.061.02.027.03.078.015.119-.006.017-.006.002.044-.039.045-.037.112-.08.2-.126.356-.188.903-.35 1.163-.406l-.126-.586c-.29.062-.894.239-1.317.461-.107.057-.212.121-.3.193a.715.715 0 00-.226.293.464.464 0 00.066.45.85.85 0 00.353.253l.238-.55zm14.695-.047c-1.434.431-4.473.721-7.502.76-1.508.018-3.002-.026-4.276-.143-1.285-.119-2.315-.31-2.917-.57l-.238.55c.696.302 1.809.498 3.1.617 1.3.12 2.816.164 4.339.145 3.033-.038 6.146-.327 7.667-.785l-.173-.574zM7.695 15.314l-.07-.292h-.003c-.002.002-.006.002-.01.003l-.041.01a16.032 16.032 0 00-.652.172c-.401.112-.913.27-1.332.442-.208.086-.406.18-.559.282-.076.051-.152.11-.213.18a.521.521 0 00-.135.297.45.45 0 00.128.35c.076.08.176.137.276.18.202.086.497.152.888.204l.079-.595c-.377-.05-.606-.108-.732-.162-.063-.027-.079-.043-.075-.04.01.012.039.053.034.114-.004.047-.026.064-.011.047a.495.495 0 01.094-.075c.104-.07.26-.147.455-.227.386-.16.87-.309 1.265-.42a20.51 20.51 0 01.632-.166l.038-.01.01-.001h.002v-.001l-.068-.292zm-3.987 1.237a9.68 9.68 0 012.822-.866c.36-.05.65-.068.849-.074a4.554 4.554 0 01.28.002h.016l.02-.299.02-.3h-.001-.027a3.501 3.501 0 00-.324-.002 8.124 8.124 0 00-.917.08c-.77.108-1.83.357-2.998.919l.26.54zm11.265.056c-2.373.62-5.878.79-8.46.64-1.3-.075-2.323-.23-2.849-.428a.984.984 0 01-.252-.128c-.045-.036-.014-.03-.011.023.003.054-.029.062.018.017.045-.044.134-.105.289-.18l-.26-.54c-.181.087-.334.18-.445.287a.581.581 0 00-.201.448c.01.19.126.327.236.414.112.09.257.16.414.22.619.235 1.725.39 3.026.466 2.617.151 6.19-.017 8.647-.659l-.152-.58zm1.271-.346l-.117-.276h-.001l-.002.001a7.207 7.207 0 00-1.243.662l.336.497c.234-.158.52-.31.75-.424a9.775 9.775 0 01.367-.172l.021-.009.006-.002-.117-.277zm-3.918.815a45.615 45.615 0 002.728-.322 52.192 52.192 0 001.152-.182l.067-.011.018-.003.004-.001h.001l-.052-.296-.052-.295h-.002-.004c-.003.002-.009.002-.016.004a13.238 13.238 0 01-.314.053c-.214.035-.52.084-.889.137a45.05 45.05 0 01-2.69.318l.05.598zm-6.354.066c1.33.177 3.941.135 6.354-.066l-.05-.598c-2.404.2-4.962.237-6.225.07l-.08.594zm10.39 3.177c2.47-1.276 3.309-2.614 3.12-3.712-.184-1.077-1.331-1.684-2.264-1.49l.122.587c.652-.135 1.432.312 1.551 1.005.115.671-.366 1.817-2.804 3.076l.275.534zm-.027.077a.91.91 0 00.066-.07.584.584 0 00.104-.168l-.561-.212a.147.147 0 01.007-.016l.002-.003-.008.01a.326.326 0 01-.024.024l.414.435zm.005-.005l-.424-.425.424.425zm-.004.004l.002-.001-.419-.43-.002.001.419.43zm.9-4.873c1.441-.503 2.593.258 2.732 1.18.07.463-.093 1.038-.687 1.615-.597.58-1.622 1.153-3.23 1.573l.151.58c1.669-.435 2.8-1.046 3.497-1.723.701-.681.968-1.44.863-2.135-.21-1.394-1.83-2.248-3.524-1.656l.198.566zm-.518.038l.253.162-.001.001v.001l-.001.001v-.002l.011-.014a.594.594 0 01.257-.187l-.2-.566a1.169 1.169 0 00-.566.434l-.003.005-.001.002h-.001v.001l.252.162zm.5-.444a5.432 5.432 0 00-.566.149 1.725 1.725 0 00-.04.015h-.003l-.002.001.111.28.112.278h-.001l.003-.001.018-.007a4.842 4.842 0 01.49-.127l-.122-.588zm-9.06 12.102c2.37.151 5.38.11 7.825-.25 1.22-.18 2.32-.441 3.133-.809.793-.358 1.422-.868 1.479-1.599l-.599-.046c-.029.377-.368.756-1.127 1.099-.739.333-1.775.585-2.974.761-2.393.353-5.358.395-7.698.246l-.038.598zm-3.979-.993a.622.622 0 00.105.228l.004.003a.41.41 0 00.004.004l.006.005a.385.385 0 00.055.037c.033.02.079.046.14.075.123.058.312.132.594.21.564.156 1.51.332 3.071.431l.039-.598c-1.535-.098-2.438-.27-2.95-.411a3.156 3.156 0 01-.497-.174.819.819 0 01-.081-.043l-.008-.005.003.002.003.003.004.002.003.004a.622.622 0 01.105.228h-.6zm12.168-.477c-3.985.746-8.91.659-11.82.181l-.097.592c2.974.488 7.97.576 12.027-.183l-.11-.59zm3.948-1.21l-.279-.111v-.001l.002-.002v-.003l.003-.006a.173.173 0 01.004-.007l-.001.002a.426.426 0 01-.05.06c-.063.064-.19.173-.434.308-.49.272-1.428.64-3.193.97l.11.59c1.8-.336 2.808-.72 3.374-1.035.284-.158.462-.301.573-.415a1.027 1.027 0 00.153-.203.499.499 0 00.015-.03l.001-.005.001-.001v-.001l-.279-.11z"></path>
</svg>