<svg xmlns="http://www.w3.org/2000/svg"  viewBox="0 0 40 40" fill="currentColor" class="change-lang-btn-icon svg replaced-svg">
<path d="M3.83821 13.8008H9.6625C11.372 13.8151 12.6107 14.308 13.3788 15.2786C14.1468 16.2492 14.4002 17.5748 14.1394 19.2556C14.0381 20.0236 13.8134 20.7769 13.4657 21.5158C13.1323 22.2547 12.669 22.921 12.0748 23.5152C11.3503 24.2684 10.5753 24.7465 9.74943 24.9495C8.9236 25.1525 8.06865 25.2538 7.185 25.2538H4.57711L3.75128 29.3829H0.730469L3.83821 13.8008ZM6.3809 16.2783L5.07696 22.798C5.16389 22.8124 5.25082 22.8197 5.33775 22.8197C5.43903 22.8197 5.54072 22.8197 5.642 22.8197C7.03288 22.8341 8.19208 22.6967 9.11919 22.4068C10.0463 22.1026 10.6696 21.0451 10.9882 19.2339C11.249 17.7126 10.9882 16.8359 10.2058 16.6043C9.4378 16.3726 8.4746 16.2639 7.3154 16.2783C7.14154 16.2926 6.97506 16.3 6.81555 16.3C6.67081 16.3 6.51868 16.3 6.35917 16.3L6.3809 16.2783Z" fill="currentColor" ></path>
<path d="M17.5748 9.64844H20.5739L19.7263 13.7993H22.4211C23.8989 13.8284 24.9999 14.1327 25.7244 14.7121C26.4634 15.2915 26.6807 16.3929 26.3764 18.0154L24.9203 25.2523H21.8778L23.2687 18.3414C23.4134 17.6169 23.37 17.1027 23.1383 16.7984C22.9066 16.4942 22.4068 16.342 21.6387 16.342L19.2265 16.3203L17.4444 25.2523H14.4453L17.5748 9.64844Z" fill="currentColor" ></path>
<path d="M29.5999 13.8008H35.4242C37.1337 13.8151 38.3725 14.308 39.1405 15.2786C39.9085 16.2492 40.1619 17.5748 39.9011 19.2556C39.7998 20.0236 39.5751 20.7769 39.2274 21.5158C38.894 22.2547 38.4307 22.921 37.8365 23.5152C37.112 24.2684 36.337 24.7465 35.5111 24.9495C34.6853 25.1525 33.8304 25.2538 32.9467 25.2538H30.3388L29.513 29.3829H26.4922L29.5999 13.8008ZM32.1426 16.2783L30.8387 22.798C30.9256 22.8124 31.0125 22.8197 31.0995 22.8197C31.2007 22.8197 31.3024 22.8197 31.4037 22.8197C32.7946 22.8341 33.9538 22.6967 34.8809 22.4068C35.808 22.1026 36.4313 21.0451 36.7499 19.2339C37.0107 17.7126 36.7499 16.8359 35.9675 16.6043C35.1995 16.3726 34.2363 16.2639 33.0771 16.2783C32.9033 16.2926 32.7368 16.3 32.5773 16.3C32.4325 16.3 32.2804 16.3 32.1209 16.3L32.1426 16.2783Z" fill="currentColor" ></path>
</svg>