<svg xmlns="http://www.w3.org/2000/svg" fill="currentColor" viewBox="0 0 24 25" class="change-lang-btn-icon svg replaced-svg">
  <path  d="M9.091 11.663h5.782c1.61 0 2.877-1.353 2.877-2.96V3.225c0-1.559-1.315-2.73-2.886-2.99A18.088 18.088 0 0011.853 0a16.25 16.25 0 00-2.738.235c-2.45.43-2.866 1.33-2.866 2.99v2.132H12v.788H4.025C2.342 6.145.868 7.152.408 9.064c-.532 2.191-.556 3.531 0 5.82.411 1.702 1.394 2.888 3.076 2.888h1.972V15.2c0-1.9 1.672-3.538 3.635-3.538zm-.364-7.707c-.6 0-1.087-.489-1.087-1.093 0-.606.486-1.1 1.087-1.1.597 0 1.086.494 1.086 1.1a1.09 1.09 0 01-1.086 1.093zm14.83 5.108c-.416-1.665-1.21-2.919-2.895-2.919h-2.118v2.558c0 1.98-1.744 3.551-3.671 3.551H9.091c-1.584 0-2.842 1.444-2.842 3.02v5.479c0 1.558 1.338 2.475 2.868 2.923 1.833.535 3.568.632 5.76 0 1.458-.42 2.873-1.264 2.873-2.923V18.56H12v-.788h8.662c1.682 0 2.31-1.138 2.895-2.89.604-1.801.578-3.506 0-5.818zm-8.32 10.958c.6 0 1.087.488 1.087 1.093 0 .606-.486 1.1-1.087 1.1a1.095 1.095 0 01-1.086-1.1 1.09 1.09 0 011.086-1.093z"></path>
</svg>