<svg xmlns="http://www.w3.org/2000/svg"  viewBox="0 0 40 40" fill="currentColor" class="change-lang-btn-icon svg replaced-svg">
<g clip-path="url(#clip0_2886_601)">
<path fill-rule="evenodd" clip-rule="evenodd" d="M20.4449 31.25C31.1885 31.25 38.7187 25.3737 38.7187 18.125C38.7187 10.8763 32.1297 5 19.2656 5C8.52191 5 -0.1875 10.8763 -0.1875 18.125C-0.1875 25.3737 9.70118 31.25 20.4449 31.25ZM23.1934 27.9688C31.2187 27.9688 36.8437 23.9813 36.8437 19.0625C36.8437 14.1437 31.9219 10.1562 22.3125 10.1562C14.2871 10.1562 7.78131 14.1437 7.78131 19.0625C7.78131 23.9813 15.168 27.9688 23.1934 27.9688Z" fill="currentColor"></path>
<path fill-rule="evenodd" clip-rule="evenodd" d="M16.2188 35H22.7814V26.3281H24.2416C24.9302 26.3281 25.5635 26.7057 25.891 27.3116L30.047 35H37.547L32.9028 26.9784C32.572 26.4069 32.0506 25.9702 31.43 25.7445L29.8126 25.1562C32.3907 25.1562 35.2032 23.0469 35.4376 19.5312C35.672 16.0156 34.0314 13.2031 29.8126 13.2031H16.2188V35ZM27.0001 17.6562H22.7814V21.875H27.0001C29.3437 21.875 29.3437 17.6562 27.0001 17.6562Z" fill="currentColor"></path>
</g>
<defs>
<clipPath id="clip0_2886_601">
<rect width="40" height="40" fill="white"></rect>
</clipPath>
</defs>
</svg>