<svg xmlns="http://www.w3.org/2000/svg"  viewBox="0 0 40 40" fill="currentColor" class="change-lang-btn-icon svg replaced-svg">
<g clip-path="url(#clip0_2886_605)">
<path fill-rule="evenodd" clip-rule="evenodd" d="M13.8839 2.84442L14.4084 2.68631L15.1505 0.663847C15.2559 0.46731 15.603 0.273265 15.9643 0.487312C16.1369 0.589616 16.7641 1.30652 17.1641 1.76388C17.2685 1.88336 17.3577 1.98513 17.419 2.05361H18.0516L19.129 0.167618C19.2712 -0.0427356 19.6845 -0.0686346 19.924 0.167618C20.0716 0.313238 20.3929 0.883897 20.6664 1.36934C20.8365 1.6714 20.9878 1.94045 21.0674 2.05361H21.7002L23.0602 0.523151C23.2474 0.335748 23.7311 0.346159 23.9339 0.741787C24.0241 0.917836 24.1409 1.26358 24.261 1.61915C24.4107 2.06265 24.5658 2.52141 24.6807 2.68514C24.8677 2.79683 25.0045 2.83134 25.2354 2.82004L26.8525 1.60471C27.0398 1.4173 27.596 1.5539 27.7135 1.90697C27.7613 2.05037 27.7923 2.37341 27.826 2.72628C27.8754 3.24222 27.931 3.82191 28.0541 3.99709C28.1741 4.11715 28.4858 4.32123 28.7737 4.17717C29.0617 4.03311 29.9347 3.61122 30.3351 3.41829C30.5515 3.36255 30.9609 3.33726 31.0997 3.70769V6.0165L31.4596 6.33811L33.3422 5.88792C33.4493 5.86421 33.6878 5.83122 33.7855 5.88792C33.8831 5.94446 34.079 6.15146 34.1646 6.24798C34.1882 6.28658 34.2134 6.46532 34.1261 6.87189C34.0386 7.27831 33.7984 8.13447 33.6892 8.51171L34.0233 8.9619L36.2913 8.88484C36.452 8.95764 36.6884 9.30023 36.6319 9.54721C36.5883 9.7375 36.2534 10.4298 35.9726 11.0103C35.8889 11.1831 35.8101 11.3462 35.7453 11.4829L35.9958 12.036L38.0905 12.3383C38.249 12.4048 38.5492 12.6355 38.4824 13.0264L37.2295 14.7949C37.2038 14.9386 37.1935 15.2555 37.3579 15.3739C37.5225 15.4921 38.7073 15.899 39.2792 16.0876C39.4055 16.1627 39.6506 16.3732 39.6198 16.615C39.5888 16.8568 39.5469 16.9473 39.5297 16.9623L37.9813 18.3772V18.9046C38.6516 19.3032 39.9924 20.1328 39.9924 20.2615C39.9924 20.291 39.9939 20.3274 39.9956 20.3675C40.003 20.5459 40.0137 20.8013 39.9089 20.8853C39.8061 20.9677 38.581 21.687 37.9813 22.0365V22.6282C38.5252 23.1083 39.612 24.0892 39.6069 24.1716C39.6053 24.1959 39.606 24.2307 39.6067 24.2719C39.6091 24.4049 39.6128 24.6049 39.549 24.7376C39.4822 24.8765 38.0561 25.3871 37.3516 25.6251L37.2231 26.1975C37.6301 26.7419 38.4478 27.8425 38.4631 27.8888C38.4824 27.9467 38.5081 28.4548 38.174 28.6863L36.0537 28.9821L35.7838 29.4645L36.6641 31.4324C36.6983 31.5782 36.6757 31.9211 36.3106 32.1269L34.0167 32.0755L33.7149 32.4356L34.2032 34.6545C34.2009 34.7894 34.0656 35.0828 33.5413 35.1753L31.5174 34.6995L31.1126 34.9952L31.1768 37.2655C31.1211 37.424 30.8915 37.7195 30.4186 37.6321L28.5232 36.7381L28.0348 36.9954L27.6749 39.2076C27.5893 39.3319 27.3178 39.5497 26.9167 39.4263L25.1756 38.1786C25.0406 38.1916 24.7567 38.2327 24.7 38.2945C24.6435 38.3562 24.094 39.7864 23.8263 40.4939C23.6999 40.5817 23.3816 40.7138 23.1194 40.5389L21.6223 38.9568H21.1148L19.8619 40.9119C19.7612 40.9784 19.4982 41.0715 19.2514 40.9119L17.9663 38.9568H17.433L15.8587 40.6032C15.7367 40.646 15.4475 40.6856 15.2677 40.5003L14.3938 38.3651C14.3402 38.2966 14.1626 38.1659 13.8798 38.1916L12.0614 39.4906C11.8793 39.4991 11.4909 39.4468 11.3932 39.169C11.2956 38.8912 11.1427 37.6385 11.0784 37.0468L10.5515 36.7317L8.66886 37.6192C8.50183 37.6813 8.12144 37.7028 7.93648 37.2912V34.9888C7.92145 34.9373 7.82077 34.8075 7.53802 34.6995L5.48195 35.1817C5.30641 35.1883 4.94094 35.1007 4.8844 34.6995C4.82785 34.2981 5.17779 33.1217 5.35986 32.5836L5.07076 32.0948L2.7769 32.1527C2.62698 32.0605 2.33741 31.8041 2.37854 31.516C2.41966 31.2279 3.02536 30.0755 3.32307 29.5352L3.02108 29.0079L0.842888 28.6992C0.716532 28.6456 0.481784 28.4278 0.553747 27.9853L1.84522 26.1975C1.83237 26.0431 1.77584 25.7087 1.65246 25.6058L-0.300845 24.9434C-0.412213 24.8533 -0.623394 24.5948 -0.577139 24.2809C-0.53087 23.967 0.547293 23.0612 1.08058 22.6475V22.0365C0.476606 21.7278 -0.768624 21.0409 -0.917697 20.7631C-1.06676 20.4853 -0.979805 20.2743 -0.917697 20.2036L1.11917 18.943V18.3965C0.652268 18.0127 -0.335528 17.1526 -0.551416 16.7822V16.3513C-0.544992 16.3021 -0.460183 16.1712 -0.172317 16.0426C0.115533 15.914 1.23269 15.5517 1.75527 15.3866L1.87094 14.8272L0.579441 13.0457V12.602C0.624419 12.4969 0.818471 12.2816 1.23483 12.2611C1.6512 12.2406 2.62056 12.1067 3.0532 12.0424L3.31021 11.5086L2.38496 9.57289C2.34212 9.36072 2.36183 8.92466 2.78333 8.8783C3.20484 8.8321 4.44964 8.859 5.01935 8.8783L5.38552 8.53754L4.85229 6.36379C4.84801 6.1773 4.97437 5.80812 5.51414 5.82347L7.57021 6.31881L7.97505 5.9972L7.87863 3.72056C7.92357 3.56192 8.12918 3.25751 8.59187 3.30896L10.5002 4.24791L11.0721 3.96495L11.374 1.89411C11.4553 1.70332 11.7184 1.36547 12.1194 1.5404C12.5203 1.71532 13.4628 2.48263 13.8839 2.84442ZM20.7002 4.89056C20.7002 5.53728 20.1767 6.06134 19.5305 6.06134C18.8845 6.06134 18.3608 5.53728 18.3608 4.89056C18.3608 4.244 18.8845 3.71982 19.5305 3.71982C20.1767 3.71982 20.7002 4.244 20.7002 4.89056ZM24.5236 10.4094H8.48148C11.3531 7.29655 13.1362 6.23065 16.6696 5.7262C16.6696 5.7262 18.6748 7.73337 19.0091 7.90056C19.3433 8.0679 19.7703 8.10498 20.1788 7.90056C20.513 7.73337 22.3512 5.7262 22.3512 5.7262C27.0871 6.75866 29.3134 8.52402 32.7117 13.2527C32.3775 13.7546 31.6422 14.9588 31.3748 15.7616C31.1076 16.5644 31.4863 17.0997 31.709 17.2669L34.3827 18.605L34.5499 21.6156H32.5447C33.3802 25.2953 29.7038 25.4625 29.2026 22.9536C28.8835 21.3574 28.0884 20.5562 27.1972 19.7758C31.8762 17.2669 30.3723 11.2457 24.5236 10.4094ZM7.14457 17.2669C7.81303 16.8655 7.7573 16.3191 7.64599 16.0961L7.27076 15.1849C7.25269 15.1409 7.28504 15.0925 7.33257 15.0925H9.81838V24.7934H5.12585C4.3237 22.6525 4.45268 19.7955 4.61979 18.6246C5.17688 18.3459 6.47627 17.6683 7.14457 17.2669ZM16.3354 15.0925V17.7686H21.6827C23.6881 17.7686 24.0223 15.2599 21.6827 15.0925H16.3354ZM16.3354 24.7934V22.1173H20.513C21.5157 22.1173 22.6854 23.2881 23.0196 26.2987C23.287 28.7073 24.5793 29.4209 25.192 29.4766H31.709L30.3723 30.8146C30.0938 30.7588 29.236 30.614 28.0327 30.4801C26.8296 30.3463 26.4175 30.982 26.3617 31.3165L26.0275 34.1597C20.6881 35.8537 17.848 35.8704 12.9933 33.9926C12.9376 33.4351 12.7929 32.1193 12.6591 31.3165C12.5254 30.5135 11.935 30.3129 11.6565 30.3129L8.64867 30.8146L7.57583 29.5876C7.53802 29.5443 7.5687 29.4766 7.62625 29.4766H19.6775C19.7698 29.4766 19.8447 29.4017 19.8447 29.3093V24.9607C19.8447 24.8683 19.7698 24.7934 19.6775 24.7934H16.3354ZM34.3827 16.9324C35.0288 16.9324 35.5524 16.4082 35.5524 15.7616C35.5524 15.115 35.0288 14.5908 34.3827 14.5908C33.7367 14.5908 33.213 15.115 33.213 15.7616C33.213 16.4082 33.7367 16.9324 34.3827 16.9324ZM4.68672 16.8641C5.33268 16.8641 5.85641 16.3399 5.85641 15.6934C5.85641 15.0468 5.33268 14.5226 4.68672 14.5226C4.04068 14.5226 3.51697 15.0468 3.51697 15.6934C3.51697 16.3399 4.04068 16.8641 4.68672 16.8641ZM11.5203 33.1356C11.5203 33.7822 10.9966 34.3064 10.3506 34.3064C9.70449 34.3064 9.18091 33.7822 9.18091 33.1356C9.18091 32.4891 9.70449 31.9649 10.3506 31.9649C10.9966 31.9649 11.5203 32.4891 11.5203 33.1356ZM28.7012 34.3271C29.3471 34.3271 29.8709 33.8029 29.8709 33.1563C29.8709 32.5096 29.3471 31.9854 28.7012 31.9854C28.0552 31.9854 27.5314 32.5096 27.5314 33.1563C27.5314 33.8029 28.0552 34.3271 28.7012 34.3271Z" fill="currentColor" ></path>
</g>
<defs>
<clipPath id="clip0_2886_605">
<rect width="40" height="40" fill="currentColor"></rect>
</clipPath>
</defs>
</svg>