<svg xmlns="http://www.w3.org/2000/svg"  viewBox="0 0 21 28" fill="currentColor" class="change-lang-btn-icon svg replaced-svg">
<path fill-rule="evenodd" clip-rule="evenodd" d="M10.8017 4.96503C16.2496 4.96503 20.6659 4.07743 20.6659 2.98251C20.6659 1.8876 16.2496 1 10.8017 1C5.35386 1 0.9375 1.8876 0.9375 2.98251C0.9375 4.07743 5.35386 4.96503 10.8017 4.96503ZM10.8019 4.19152C15.7423 4.19152 19.7474 3.58535 19.7474 2.8376C19.7474 2.08986 15.7423 1.48369 10.8019 1.48369C5.86141 1.48369 1.85638 2.08986 1.85638 2.8376C1.85638 3.58535 5.86141 4.19152 10.8019 4.19152Z" fill="currentColor"></path>
<path d="M20.3659 2.98251C20.3659 3.01082 20.353 3.0721 20.2553 3.16803C20.1571 3.26451 19.9962 3.37195 19.762 3.48323C19.2951 3.70509 18.6003 3.91285 17.7177 4.09024C15.9573 4.44404 13.512 4.66503 10.8017 4.66503V5.26503C13.5393 5.26503 16.0261 5.04221 17.8359 4.67848C18.7383 4.49711 19.4881 4.27768 20.0195 4.02516C20.2845 3.89926 20.5112 3.75773 20.6757 3.59609C20.8409 3.4339 20.9659 3.22793 20.9659 2.98251H20.3659ZM10.8017 1.3C13.512 1.3 15.9573 1.52099 17.7177 1.87478C18.6003 2.05218 19.2951 2.25994 19.762 2.4818C19.9962 2.59307 20.1571 2.70052 20.2553 2.797C20.353 2.89292 20.3659 2.9542 20.3659 2.98251H20.9659C20.9659 2.7371 20.8409 2.53113 20.6757 2.36894C20.5112 2.2073 20.2845 2.06577 20.0195 1.93986C19.4881 1.68735 18.7383 1.46792 17.8359 1.28655C16.0261 0.922815 13.5393 0.7 10.8017 0.7V1.3ZM1.2375 2.98251C1.2375 2.9542 1.25046 2.89292 1.34812 2.797C1.44635 2.70052 1.60725 2.59307 1.84143 2.4818C2.30833 2.25994 3.00312 2.05218 3.88577 1.87478C5.64613 1.52099 8.09145 1.3 10.8017 1.3V0.7C8.06413 0.7 5.57733 0.922815 3.76755 1.28655C2.86513 1.46792 2.11534 1.68735 1.58392 1.93986C1.31896 2.06577 1.09226 2.2073 0.927691 2.36894C0.762556 2.53113 0.6375 2.7371 0.6375 2.98251H1.2375ZM10.8017 4.66503C8.09145 4.66503 5.64613 4.44404 3.88577 4.09024C3.00312 3.91285 2.30833 3.70509 1.84143 3.48323C1.60725 3.37195 1.44635 3.26451 1.34812 3.16803C1.25046 3.0721 1.2375 3.01082 1.2375 2.98251H0.6375C0.6375 3.22793 0.762556 3.4339 0.927691 3.59609C1.09226 3.75773 1.31896 3.89926 1.58392 4.02516C2.11534 4.27768 2.86513 4.49711 3.76755 4.67848C5.57733 5.04221 8.06413 5.26503 10.8017 5.26503V4.66503ZM19.4474 2.8376C19.4474 2.78735 19.4799 2.8007 19.3872 2.86927C19.3023 2.9321 19.158 3.00532 18.9433 3.08215C18.5175 3.2345 17.8846 3.37692 17.0824 3.49834C15.4825 3.74048 13.2619 3.89152 10.8019 3.89152V4.49152C13.2823 4.49152 15.5344 4.33947 17.1722 4.09159C17.9887 3.968 18.6659 3.81867 19.1454 3.64707C19.3834 3.56191 19.5906 3.46511 19.744 3.35166C19.8896 3.24396 20.0474 3.07479 20.0474 2.8376H19.4474ZM10.8019 1.78369C13.2619 1.78369 15.4825 1.93473 17.0824 2.17687C17.8846 2.29829 18.5175 2.4407 18.9433 2.59306C19.158 2.66989 19.3023 2.74311 19.3872 2.80594C19.4799 2.87451 19.4474 2.88785 19.4474 2.8376H20.0474C20.0474 2.60042 19.8896 2.43125 19.744 2.32355C19.5906 2.2101 19.3834 2.11329 19.1454 2.02814C18.6659 1.85654 17.9887 1.70721 17.1722 1.58362C15.5344 1.33574 13.2823 1.18369 10.8019 1.18369V1.78369ZM2.15638 2.8376C2.15638 2.88785 2.1238 2.87451 2.21651 2.80594C2.30145 2.74311 2.44574 2.66989 2.66043 2.59306C3.08621 2.4407 3.71909 2.29829 4.52134 2.17687C6.1212 1.93473 8.34185 1.78369 10.8019 1.78369V1.18369C8.32142 1.18369 6.06933 1.33574 4.43155 1.58362C3.61499 1.70721 2.93784 1.85654 2.45828 2.02814C2.22031 2.11329 2.0131 2.2101 1.85972 2.32355C1.71411 2.43125 1.55638 2.60042 1.55638 2.8376H2.15638ZM10.8019 3.89152C8.34185 3.89152 6.1212 3.74048 4.52134 3.49834C3.71909 3.37692 3.08621 3.2345 2.66043 3.08215C2.44574 3.00532 2.30145 2.9321 2.21651 2.86927C2.1238 2.8007 2.15638 2.78735 2.15638 2.8376H1.55638C1.55638 3.07479 1.71411 3.24396 1.85972 3.35166C2.0131 3.46511 2.22031 3.56191 2.45828 3.64707C2.93784 3.81867 3.61499 3.968 4.43155 4.09159C6.06933 4.33947 8.32142 4.49152 10.8019 4.49152V3.89152Z" fill="currentColor"></path>
<path d="M0.9375 2.93359C0.9375 2.93359 4.43011 4.25786 10.7679 4.25786C17.1057 4.25786 20.6659 2.93359 20.6659 2.93359V8.76378C20.6659 8.76378 20.1582 11.1054 10.8017 11.1054C1.44522 11.1054 0.9375 8.76378 0.9375 8.76378V2.93359Z" fill="#A8A8BF" stroke="#A8A8BF" stroke-width="0.6" stroke-linecap="round" stroke-linejoin="round"></path>
<path d="M0.9375 11.0636C0.9375 11.0636 0.944635 10.9089 0.985854 10.8218C1.04301 10.7012 1.22762 10.5801 1.22762 10.5801C1.22762 10.5801 2.92001 12.3208 10.8017 12.3208C18.6834 12.3208 20.3033 10.5801 20.3033 10.5801C20.4998 10.6953 20.6196 10.8408 20.6659 11.0636V16.8938C20.6659 16.8938 20.1582 19.2354 10.8017 19.2354C1.44522 19.2354 0.9375 16.8938 0.9375 16.8938V11.0636Z" fill="#A8A8BF" stroke="#A8A8BF" stroke-width="0.6" stroke-linecap="round" stroke-linejoin="round"></path>
<path d="M0.9375 19.2238C0.9375 19.2238 0.944635 19.069 0.985854 18.982C1.04301 18.8613 1.22762 18.7402 1.22762 18.7402C1.22762 18.7402 2.92001 20.481 10.8017 20.481C18.6834 20.481 20.3033 18.7402 20.3033 18.7402C20.4998 18.8554 20.6196 19.0009 20.6659 19.2238V25.054C20.6659 25.054 20.1582 27.3956 10.8017 27.3956C1.44522 27.3956 0.9375 25.054 0.9375 25.054V19.2238Z" fill="#A8A8BF" stroke="#A8A8BF" stroke-width="0.6" stroke-linecap="round" stroke-linejoin="round"></path>
</svg>