<svg xmlns="http://www.w3.org/2000/svg"  viewBox="0 0 40 40" fill="currentColor" class="change-lang-btn-icon svg replaced-svg">
<path fill-rule="evenodd" clip-rule="evenodd" d="M29.9196 33.8549C32.0265 33.0205 36.1973 31.7405 38.4533 35.8806C38.9712 36.8532 40.1207 31.7059 35.9618 26.8506L35.8873 26.7661C35.9081 26.6956 35.9286 26.6286 35.9487 26.5631C35.9889 26.4317 36.0272 26.3061 36.0638 26.1702C38.159 18.6894 33.1565 9.75527 24.7445 5C28.3777 9.66308 30.0412 15.2949 28.5857 20.25C28.4536 20.7083 28.2951 21.1588 28.1109 21.5995C27.9383 21.4841 27.7225 21.361 27.4439 21.2149C21.1601 17.3644 15.3113 12.871 9.99608 7.81009C13.1936 12.2165 16.7354 16.3731 20.5896 20.2423C17.8902 18.7855 10.3022 13.638 5.53115 9.5593C6.1325 10.4985 6.82774 11.3767 7.60662 12.181C11.5537 16.9401 16.8504 22.768 23.0888 27.2504C18.7062 29.7914 12.4836 29.9798 6.257 27.2504C4.73944 26.619 3.30917 25.8028 2 24.8209C4.81703 28.9559 8.83711 32.1663 13.539 34.0355C19.5694 36.4535 25.5607 36.2113 29.9196 33.8549Z" fill="currentColor" ></path>
</svg>